# xmcd
#
# Track frame offsets:
#	150
#	11149
#	25460
#	38721
#	55170
#	71369
#	86912
#	106545
#	122190
#	139741
#	150492
#	164059
#	178215
#	192868
#
# Disc length: 2847 seconds
#
# Revision: 1
# Processed by: cddbd v1.5.1PL0 Copyright (c) Steve Scherf et al.
# Submitted via: audiograbber 1.83.01
#
DISCID=bd0b1d0e
DTITLE=Hurvinek a Manicka - Hurvinek zpiva country
DYEAR=1900
DGENRE=
TTITLE0=Ruty suty Arizona Texas
TTITLE1=Zvednete kotvy
TTITLE2=Okor
TTITLE3=Cerny muz
TTITLE4=Cervena reka
TTITLE5=Velrybarska vyprava
TTITLE6=Uz ni lasko neni 20 let
TTITLE7=Rikatado
TTITLE8=Tresne zraly
TTITLE9=Buraky
TTITLE10=Rodne udoli
TTITLE11=Zlate strevicky
TTITLE12=Zlatokop Tom
TTITLE13=Ruze z Texasu
EXTD=
EXTT0=
EXTT1=
EXTT2=
EXTT3=
EXTT4=
EXTT5=
EXTT6=
EXTT7=
EXTT8=
EXTT9=
EXTT10=
EXTT11=
EXTT12=
EXTT13=
PLAYORDER=
